<svg class="store-logo hungama" xmlns="http://www.w3.org/2000/svg" viewBox="0 0 923.45 180.05"><defs><style>.j{fill:#fff;}</style></defs><g id="b"><path id="c" class="j" d="M75.98,167.74V95.38c0-7.24-2.27-13.05-6.8-17.43-4.53-4.39-10.45-6.58-17.76-6.58-4.53,0-9.1,1.24-13.7,3.73-4.6,2.41-7.89,5.19-9.87,8.33v84.31H0V6.58L27.85,0V57.78c7.09-6.43,16.85-9.65,29.27-9.65,14.69,0,26.09,4.09,34.21,12.28,8.11,8.11,12.17,19.77,12.17,34.97v72.36h-27.52"/><path id="d" class="j" d="M208.96,167.85v-9.87c-3.87,3.29-9.21,6.1-16.01,8.44-6.8,2.34-13.05,3.51-18.75,3.51-27.26,0-40.89-14.47-40.89-43.42V50.32h27.41V124.44c0,15.06,6.76,22.58,20.28,22.58,6.21,0,11.99-1.61,17.32-4.82,5.34-3.22,8.88-6.94,10.63-11.18V50.32h27.41v117.53h-27.41"/><path id="e" class="j" d="M341.73,167.74V99.88c0-10.01-1.94-17.32-5.81-21.93-3.8-4.6-10.05-6.91-18.75-6.91-4.02,0-8.33,1.13-12.94,3.4-4.53,2.27-8.08,5.08-10.63,8.44v84.86h-27.41V50.32h19.73l5.04,10.96c7.46-8.77,18.46-13.16,33-13.16s24.96,4.2,33,12.61c8.11,8.33,12.17,19.99,12.17,34.97v72.03h-27.41"/><path id="f" class="j" d="M474.23,41.23l-10.66,12.57c-7.09-3.95-15.98-6.01-26.51-6.01-13.45,0-24.67,4.31-33.88,12.57-9.21,8.19-13.94,18.58-13.94,31.15,0,15.93,6.85,28.19,20.22,36.89-4.17,1.75-7.79,4.47-10.93,8.2-3.14,3.73-4.92,7.6-4.92,11.48,0,13.52,9.56,20.22,28.42,20.22,3.07,0,7.6-.36,13.66-1.09,6.07-.73,10.59-1.09,13.66-1.09,11.33,0,16.94,3.44,16.94,10.38,0,1.23-.08,2.48-.55,3.55h27.33c.17-1.4,.27-2.89,.27-4.37,0-21.42-13.49-31.97-40.17-31.97-3.8,0-8.33,.54-13.66,1.64-5.34,1.1-9.21,1.64-11.48,1.64-5.04,0-7.38-1.45-7.38-4.37,0-1.68,1.56-3.38,4.92-4.92,3.44-1.61,5.5-2.46,6.01-2.46l4.37,.82c3.29,.37,5.95,.55,7.92,.55,12.43,0,22.77-4.06,30.88-12.02,8.19-8.04,12.3-18.87,12.3-32.24,0-9.36-2.3-17.45-6.83-24.32l13.12-9.56-19.13-17.22Zm-35.8,29.24c5.99,0,11.03,1.92,14.76,6.01,3.8,4.09,5.74,9.11,5.74,15.03,0,7.16-1.96,12.85-5.47,16.94-3.51,4.09-8.52,6.01-15.03,6.01-6.51,0-11.7-1.85-15.58-6.01-3.8-4.24-5.47-10-5.47-16.94,0-6.21,1.79-11.36,5.74-15.3,3.95-3.95,9.02-5.74,15.3-5.74Z"/><path id="g" class="j" d="M576.68,156.01c-2.48,4.09-6.83,7.46-13.05,10.09-6.14,2.56-12.57,3.84-19.3,3.84-12.64,0-22.58-3.14-29.82-9.43-7.24-6.36-10.85-15.35-10.85-26.97,0-13.59,5.08-24.23,15.24-31.9,10.23-7.67,24.74-11.51,43.53-11.51,3.22,0,7.02,.55,11.4,1.64,0-13.81-8.73-20.72-26.2-20.72-10.31,0-18.93,1.72-25.87,5.15l-5.92-21.27c9.43-4.53,20.65-6.8,33.66-6.8,17.91,0,31.03,4.09,39.36,12.28,8.33,8.11,12.5,23.53,12.5,46.27v25.11c0,15.64,3.14,25.47,9.43,29.49-2.27,3.95-4.79,6.36-7.56,7.24-2.78,.95-5.96,1.43-9.54,1.43-3.95,0-7.49-1.46-10.63-4.39-3.14-2.92-5.26-6.1-6.36-9.54m-2.63-43.53c-4.68-.95-8.19-1.43-10.52-1.43-21.63,0-32.45,7.09-32.45,21.27,0,10.52,6.1,15.79,18.31,15.79,16.45,0,24.67-8.22,24.67-24.67v-10.96"/><path id="h" class="j" d="M767,167.74V94.18c0-15.42-6.91-23.13-20.72-23.13-4.09,0-8.04,1.21-11.84,3.62s-6.47,5.19-8,8.33v84.75h-27.41V89.9c0-5.77-1.79-10.34-5.37-13.7-3.58-3.43-8.62-5.15-15.13-5.15-3.44,0-7.2,1.28-11.29,3.84-4.02,2.56-6.94,5.37-8.77,8.44v84.42h-27.41V50.32h18.86l5.59,10.31c7.6-8.33,17.43-12.5,29.49-12.5,15.57,0,27.3,4.24,35.19,12.72,3.43-3.87,8.22-6.94,14.36-9.21,6.14-2.34,12.28-3.51,18.42-3.51,13.08,0,23.24,3.76,30.48,11.29,7.31,7.46,10.96,17.72,10.96,30.81v77.51h-27.41"/><path id="i" class="j" d="M889.35,156.01c-2.48,4.09-6.83,7.46-13.05,10.09-6.14,2.56-12.57,3.84-19.3,3.84-12.64,0-22.58-3.14-29.82-9.43-7.24-6.36-10.85-15.35-10.85-26.97,0-13.59,5.08-24.23,15.24-31.9,10.23-7.67,24.74-11.51,43.53-11.51,3.22,0,7.02,.55,11.4,1.64,0-13.81-8.73-20.72-26.2-20.72-10.31,0-18.93,1.72-25.87,5.15l-5.92-21.27c9.43-4.53,20.65-6.8,33.66-6.8,17.91,0,31.03,4.09,39.36,12.28,8.33,8.11,12.5,23.53,12.5,46.27v25.11c0,15.64,3.14,25.47,9.43,29.49-2.27,3.95-4.79,6.36-7.56,7.24-2.78,.95-5.96,1.43-9.54,1.43-3.95,0-7.49-1.46-10.63-4.39-3.14-2.92-5.26-6.1-6.36-9.54m-2.63-43.53c-4.68-.95-8.19-1.43-10.52-1.43-21.63,0-32.45,7.09-32.45,21.27,0,10.52,6.1,15.79,18.31,15.79,16.45,0,24.67-8.22,24.67-24.67v-10.96"/></g></svg>