<svg class="store-logo jiosaavn" xmlns="http://www.w3.org/2000/svg" viewBox="0 0 990.28 286.52" width="120px" height="64px"><defs><style>.b{fill:#fff;}</style></defs><path class="b" d="M143.26,0C64.47,0,0,64.47,0,143.26s64.47,143.26,143.26,143.26,143.26-64.47,143.26-143.26S222.05,0,143.26,0Zm-18.8,228.32l-.9,.9c0,.9-.9,.9-.9,.9h-2.69c-19.7-5.37-37.61-17.91-49.25-34.92-.9,0-.9-.9-.9-1.79s0-1.79,.9-2.69,1.79-.9,2.69-.9c10.74,2.69,19.7,7.16,28.65,12.54,8.95,5.37,16.12,13.43,21.49,22.38,.9,0,.9,.9,.9,1.79v1.79Zm95.8-38.5c-7.16,12.54-17.91,23.28-30.44,30.44-12.54,7.16-26.86,11.64-41.19,12.54-.9,0-1.79,0-2.69-.9s-.9-1.79-.9-2.69,0-1.79,.9-2.69c17.91-21.49,42.98-36.71,70.73-42.98h.9c.9,0,1.79,0,2.69,.9s.9,1.79,.9,2.69,0,1.79-.9,2.69Zm8.95-70.73v2.69c-.9,0-.9,.9-1.79,.9-22.38,9.85-41.19,24.17-56.41,42.98-15.22,18.8-25.07,41.19-29.55,64.47q0,.9-.9,1.79c-.9,.9-1.79,.9-2.69,.9-1.79,0-4.48-.9-6.27-.9,0,0-.9,0-1.79-.9-.9-.9-.9-1.79-.9-2.69-.9-22.38-7.16-45.66-18.8-65.36-11.64-20.59-27.76-36.71-47.45-49.25-.9,0-1.79-.9-1.79-1.79v-2.69c6.27-15.22,16.12-27.76,28.65-37.61h3.58l.9,.9s.9,0,.9,.9c20.59,38.5,33.13,79.69,38.5,122.67,0,2.69,.9,8.95,.9,8.95v1.79l.9,.9c0,.9,.9,.9,.9,.9h1.79c.9,0,1.79,0,1.79-.9s.9-.9,.9-1.79c17.91-46.56,23.28-96.7,15.22-145.95v-.9c0-.9,0-1.79,.9-2.69,.9-.9,1.79-.9,2.69-.9h.9c16.12,2.69,30.44,10.74,42.98,21.49,12.54,10.74,21.49,25.07,25.97,41.19v.9Z"/><path class="b" d="M360.83,196.98c-7.16,0-14.33-.9-20.59-4.48-5.37-2.69-9.85-7.16-13.43-12.54-2.69-6.27-4.48-12.54-4.48-18.8v-2.69h25.07c0,4.48,.9,8.06,2.69,11.64,1.79,1.79,5.37,3.58,8.06,3.58s6.27,0,8.95-1.79c1.79-.9,2.69-3.58,3.58-5.37,.9-2.69,.9-5.37,.9-8.06V82.37h27.76v75.21c.9,10.74-2.69,21.49-9.85,29.55-3.58,3.58-8.95,6.27-13.43,8.06-5.37,.9-9.85,1.79-15.22,1.79h0Z"/><path class="b" d="M427.09,99.39c-2.69,0-5.37-.9-7.16-1.79-1.79-.9-3.58-2.69-5.37-4.48-.9-1.79-1.79-4.48-1.79-7.16s.9-5.37,1.79-7.16c.9-1.79,2.69-3.58,5.37-4.48s4.48-1.79,7.16-1.79,5.37,.9,7.16,1.79c1.79,.9,3.58,2.69,5.37,4.48,.9,1.79,1.79,4.48,1.79,7.16s-.9,4.48-1.79,7.16c-.9,1.79-2.69,3.58-5.37,4.48-1.79,.9-4.48,1.79-7.16,1.79h0Zm-12.54,94.91V111.03h25.07v83.27h-25.07Z"/><path class="b" d="M495.14,196.98c-8.06,0-16.12-1.79-22.38-5.37s-11.64-8.95-15.22-15.22c-3.58-7.16-5.37-15.22-5.37-23.28s1.79-16.12,5.37-23.28c3.58-6.27,8.06-11.64,15.22-15.22s15.22-5.37,22.38-5.37c8.06,0,15.22,1.79,22.38,5.37,6.27,3.58,11.64,8.95,14.33,15.22,3.58,7.16,5.37,15.22,5.37,23.28s-1.79,16.12-5.37,23.28c-3.58,6.27-8.95,11.64-15.22,15.22-6.27,3.58-14.33,5.37-21.49,5.37Zm0-18.8c3.58,0,7.16-.9,9.85-2.69,2.69-2.69,5.37-5.37,6.27-8.95,1.79-4.48,1.79-8.95,1.79-13.43s-.9-8.95-1.79-12.54c-.9-3.58-2.69-6.27-5.37-8.95-2.69-2.69-6.27-3.58-9.85-3.58s-6.27,.9-8.95,2.69-4.48,5.37-6.27,8.06c-1.79,4.48-1.79,8.95-1.79,13.43s.9,8.95,1.79,13.43c.9,3.58,2.69,6.27,6.27,8.95,.9,1.79,4.48,2.69,8.06,3.58h0Z"/><path class="b" d="M593.63,196.98c-8.06,0-16.12-.9-23.28-3.58-7.16-2.69-13.43-6.27-17.91-11.64-4.48-5.37-7.16-12.54-7.16-18.8v-1.79h27.76c0,2.69,.9,6.27,2.69,8.06,1.79,2.69,4.48,3.58,8.06,4.48s7.16,1.79,10.74,1.79c4.48,0,9.85-.9,13.43-2.69,1.79-.9,2.69-1.79,4.48-3.58,.9-1.79,1.79-3.58,.9-5.37,0-1.79-.9-4.48-1.79-5.37-1.79-1.79-3.58-3.58-5.37-4.48-3.58-1.79-7.16-2.69-10.74-3.58l-20.59-5.37c-5.37-.9-9.85-3.58-14.33-7.16-3.58-2.69-7.16-6.27-8.95-9.85-1.79-4.48-2.69-8.95-2.69-13.43,0-7.16,1.79-13.43,6.27-18.8,4.48-5.37,9.85-8.95,16.12-11.64,6.27-3.58,14.33-4.48,21.49-3.58,8.06,0,15.22,.9,22.38,3.58,6.27,1.79,11.64,6.27,15.22,10.74,3.58,5.37,6.27,11.64,6.27,17.91h-26.86c0-1.79-.9-3.58-1.79-5.37-.9-1.79-1.79-2.69-3.58-3.58-4.48-1.79-8.95-3.58-13.43-2.69-3.58,0-8.06,.9-11.64,2.69-1.79,.9-2.69,1.79-3.58,2.69s-.9,2.69-.9,4.48,0,3.58,.9,5.37c.9,1.79,2.69,2.69,4.48,3.58,2.69,.9,6.27,2.69,8.95,2.69l13.43,3.58c7.16,1.79,13.43,4.48,19.7,7.16,5.37,2.69,8.95,5.37,12.54,9.85s5.37,10.74,4.48,16.12c0,7.16-1.79,13.43-5.37,19.7-4.48,5.37-9.85,9.85-16.12,12.54-7.16,3.58-16.12,5.37-24.17,5.37h0Z"/><path class="b" d="M676.9,196.98c-5.37,0-10.74-.9-15.22-2.69-4.48-1.79-8.06-5.37-9.85-8.95-2.69-4.48-3.58-8.95-3.58-14.33,0-4.48,.9-8.06,2.69-11.64,1.79-3.58,4.48-6.27,8.06-8.95,9.85-5.37,20.59-7.16,30.44-6.27h12.54v-2.69c0-2.69,0-6.27-.9-8.95-.9-1.79-2.69-3.58-4.48-5.37-2.69-.9-5.37-1.79-7.16-1.79-3.58,0-7.16,.9-9.85,2.69-.9,.9-1.79,1.79-2.69,2.69-.9,.9-.9,2.69-.9,3.58h-24.17c0-5.37,1.79-9.85,5.37-13.43,3.58-4.48,8.06-7.16,13.43-8.95,6.27-1.79,13.43-2.69,20.59-2.69s14.33,.9,20.59,3.58c5.37,1.79,8.95,6.27,11.64,10.74,2.69,6.27,4.48,12.54,3.58,18.8v51.93h-22.38l-.9-9.85c-2.69,3.58-5.37,7.16-9.85,8.95-5.37,1.79-11.64,3.58-17.01,3.58h0Zm8.95-17.91c2.69,0,6.27-.9,8.95-1.79s4.48-3.58,5.37-5.37c1.79-2.69,1.79-6.27,1.79-8.95v-5.37h-8.95c-3.58,0-7.16,0-10.74,.9-2.69,.9-4.48,1.79-6.27,3.58-.9,.9-1.79,1.79-1.79,2.69s-.9,2.69-.9,3.58c0,1.79,0,2.69,.9,4.48s1.79,2.69,2.69,3.58c2.69,1.79,5.37,2.69,8.95,2.69h0Z"/><path class="b" d="M765.54,196.98c-5.37,0-10.74-.9-15.22-2.69-4.48-1.79-8.06-5.37-9.85-8.95-2.69-4.48-3.58-8.95-3.58-14.33,0-4.48,.9-8.06,2.69-11.64,1.79-3.58,4.48-6.27,8.06-8.95,9.85-5.37,20.59-7.16,31.34-7.16h12.54v-2.69c0-2.69,0-6.27-.9-8.95-.9-1.79-2.69-3.58-4.48-4.48-2.69-.9-5.37-1.79-7.16-1.79-3.58,0-7.16,.9-9.85,2.69-.9,.9-1.79,1.79-2.69,2.69-.9,.9-.9,2.69-.9,3.58h-24.17c0-5.37,1.79-9.85,5.37-13.43,3.58-4.48,8.06-7.16,13.43-8.95,6.27-1.79,13.43-2.69,20.59-2.69s14.33,.9,20.59,3.58c5.37,1.79,8.95,6.27,11.64,10.74,2.69,6.27,4.48,12.54,3.58,18.8v51.93h-23.28l-.9-9.85c-2.69,3.58-5.37,7.16-9.85,8.95-5.37,1.79-11.64,3.58-17.01,3.58h0Zm8.95-17.91c2.69,0,6.27-.9,8.95-1.79s4.48-3.58,5.37-5.37c1.79-2.69,1.79-6.27,1.79-8.95v-5.37h-8.95c-3.58,0-7.16,0-10.74,.9-2.69,.9-4.48,1.79-6.27,3.58-.9,.9-1.79,1.79-1.79,2.69s-.9,2.69-.9,3.58c0,1.79,0,2.69,.9,4.48s1.79,2.69,2.69,3.58c2.69,1.79,5.37,2.69,8.95,2.69h0Z"/><path class="b" d="M847.91,194.3l-26.86-83.27h26.86l15.22,55.51,15.22-55.51h24.17l-26.86,83.27h-27.76Z"/><path class="b" d="M911.49,194.3V111.03h24.17v11.64c2.69-4.48,6.27-8.06,10.74-9.85,4.48-2.69,8.95-3.58,14.33-3.58s10.74,.9,16.12,3.58c4.48,2.69,8.06,6.27,9.85,10.74,2.69,5.37,3.58,11.64,3.58,17.91v53.72h-25.07v-46.56c0-5.37-.9-10.74-3.58-15.22-.9-1.79-2.69-2.69-4.48-3.58-1.79-.9-3.58-.9-5.37-.9s-4.48,0-6.27,.9-3.58,1.79-5.37,3.58c-2.69,4.48-4.48,9.85-3.58,15.22v45.66h-25.07Z"/></svg>