<svg width="462" height="281" viewBox="0 0 462 281" fill="none" xmlns="http://www.w3.org/2000/svg">
<rect opacity="0.25" x="0.5" y="1" width="461" height="279" fill="black" stroke="white"/>
<path d="M269.134 178.042L227.103 104.724H251.847L269.134 138.054L286.421 104.724H311.165L269.134 178.042ZM122.031 178.042L80 104.724H104.743L122.031 138.054L139.318 104.724H164.061L122.031 178.042ZM195.586 120.277C202.925 120.277 208.614 125.334 210.351 132.975H180.784C182.763 125.033 188.013 120.277 195.586 120.277ZM232.36 140.594C232.36 119.558 215.894 102.507 195.586 102.507C175.271 102.507 158.812 119.558 158.812 140.594C158.812 161.63 175.293 178.68 196.224 178.68C212.939 178.68 226.048 168.566 230.41 154.554H208.277C205.205 159.105 200.689 160.265 196.231 160.265C187.675 160.265 182.221 154.371 180.513 146.297H231.957C232.221 144.44 232.36 142.531 232.36 140.594ZM343.958 158.364C334.449 158.364 327.469 150.745 327.469 140.586C327.469 130.428 334.449 122.809 343.958 122.809C353.466 122.809 360.446 130.428 360.446 140.586C360.446 150.745 353.466 158.364 343.958 158.364ZM343.958 102.5C322.946 102.5 305.915 119.55 305.915 140.586C305.915 161.622 322.946 178.673 343.958 178.673C364.969 178.673 382 161.622 382 140.586C382 119.55 364.969 102.5 343.958 102.5Z" fill="white"/>
</svg>
